<svg width="412" height="75" viewBox="0 0 412 75" fill="none" xmlns="http://www.w3.org/2000/svg">
<path d="M74.8138 35.752C80.1898 36.84 84.2538 38.728 87.0058 41.416C89.7578 44.04 91.1338 47.816 91.1338 52.744V53.128C91.1338 60.36 88.1258 65.48 82.1098 68.488C76.1578 71.432 67.5818 72.936 56.3818 73H56.1898H52.4458H0.0297501V1.96H60.7978C68.2218 2.024 74.1418 3.56 78.5578 6.568C82.9738 9.576 85.1818 13.832 85.1818 19.336V19.72C85.1818 23.88 84.3178 27.272 82.5898 29.896C80.8618 32.52 78.2698 34.472 74.8138 35.752ZM49.6618 29.8C52.8618 29.8 55.1978 29.736 56.6698 29.608C58.2058 29.416 59.4858 28.84 60.5098 27.88C61.5978 26.92 62.1418 25.32 62.1418 23.08C62.1418 21.032 61.6298 19.56 60.6058 18.664C59.5818 17.768 58.2698 17.224 56.6698 17.032C55.0698 16.776 52.7338 16.648 49.6618 16.648H49.5658H22.2058V29.704C28.7978 29.704 33.1498 29.736 35.2618 29.8H39.8698H49.6618ZM52.8298 56.968C56.4138 56.968 59.1018 56.872 60.8938 56.68C62.6858 56.424 64.1258 55.784 65.2138 54.76C66.3018 53.672 66.8458 51.976 66.8458 49.672C66.8458 47.432 66.3018 45.832 65.2138 44.872C64.1258 43.848 62.6858 43.24 60.8938 43.048C59.1018 42.792 56.4138 42.664 52.8298 42.664H52.7338H22.2058V56.872C31.2298 56.872 37.6298 56.904 41.4058 56.968C45.2458 56.968 47.8698 56.968 49.2778 56.968H52.8298ZM120.867 73H97.1548V1.96H120.867V73ZM185.773 72.904L166.093 49.96H151.405V72.904H128.749V1.86399H182.413C188.365 1.86399 193.613 2.856 198.157 4.84C202.765 6.824 206.317 9.608 208.813 13.192C211.373 16.712 212.653 20.808 212.653 25.48V25.864C212.653 31.944 210.861 36.968 207.277 40.936C203.757 44.904 198.861 47.56 192.589 48.904L213.229 72.904H185.773ZM190.381 26.056C190.381 23.56 189.837 21.736 188.749 20.584C187.725 19.432 186.381 18.728 184.717 18.472C183.053 18.216 180.621 18.088 177.421 18.088H173.965C169.229 18.216 161.709 18.28 151.405 18.28V33.544H177.229H177.421C180.621 33.544 183.053 33.416 184.717 33.16C186.381 32.904 187.725 32.264 188.749 31.24C189.837 30.152 190.381 28.424 190.381 26.056ZM310.228 73H295.348L293.524 67.528C285.46 72.456 275.86 74.92 264.724 74.92C255.892 74.92 247.86 73.288 240.628 70.024C233.396 66.76 227.668 62.28 223.444 56.584C219.284 50.888 217.204 44.552 217.204 37.576C217.204 30.472 219.316 24.072 223.54 18.376C227.764 12.68 233.492 8.232 240.724 5.032C247.956 1.768 255.956 0.135994 264.724 0.135994C272.596 0.135994 279.732 1.25599 286.132 3.496C292.532 5.736 297.812 9.032 301.972 13.384C306.132 17.672 308.82 22.856 310.036 28.936L285.364 29.032C284.084 25.32 281.524 22.6 277.684 20.872C273.908 19.144 269.62 18.28 264.82 18.28C260.852 18.28 257.236 19.08 253.972 20.68C250.708 22.216 248.116 24.456 246.196 27.4C244.34 30.28 243.411 33.672 243.411 37.576C243.411 41.544 244.372 45 246.292 47.944C248.212 50.824 250.804 53.032 254.068 54.568C257.332 56.04 260.916 56.776 264.82 56.776C268.724 56.776 272.372 56.04 275.764 54.568C279.156 53.096 281.812 50.952 283.732 48.136H265.108V35.464H310.132V43.816L310.228 73ZM411.769 73H387.865L381.241 60.808H341.017L334.393 73H310.488L348.985 1.96H373.273L411.769 73ZM361.177 23.656L349.657 44.776H372.601L361.177 23.656Z" fill="white"/>
</svg>
